# xmcd
#
# Track frame offsets: 
#        150
#        14342
#        26305
#        35755
#        47235
#        57565
#        70300
#        83077
#        96667
#        108592
#        120647
#        133465
#
# Disc length: 1942 seconds
#
# Revision: 3
# Processed by: cddbd v1.5.2PL0 Copyright (c) Steve Scherf et al.
# Submitted via: ExactAudioCopy v0.95b4
#
DISCID=b107940c
DTITLE=Various Artist - The Country Collection - Disc 4
DYEAR=1997
DGENRE=Country
TTITLE0=Barbara Fairchild - Teddy Bear Song
TTITLE1=Donna Fargo - The Happiest Girl In The Whole U.S.A.
TTITLE2=Harden Trio - Tippy Toeing
TTITLE3=Don Gibson - Sea Of Heartbreak
TTITLE4=Connie Smith - Once A Day
TTITLE5=David Houston - My Elusive Dreams
TTITLE6=Stonewall Jackson - Me And You And A Dog Named Boo
TTITLE7=Johnny Paycheck - She's All I Got
TTITLE8=Del Reeves - Girl On The Billboard
TTITLE9=Jack Greene - All The Time
TTITLE10=Jerry Wallace - In The Misty Moonlight
TTITLE11=Johnny Russell - Rednecks, White Socks And Blue Ribbon Beer
EXTD=
EXTT0=
EXTT1=
EXTT2=
EXTT3=
EXTT4=
EXTT5=
EXTT6=
EXTT7=
EXTT8=
EXTT9=
EXTT10=
EXTT11=
PLAYORDER=
